<svg width="561" height="211" viewBox="0 0 561 211" fill="none" xmlns="http://www.w3.org/2000/svg">
<path d="M59.5835 116.249C39.9209 122.055 0.229444 123.548 7.43809 95.4046C16.4489 60.2252 34.4315 -5.42421 87.5689 55.0494C86.1391 31.8176 90.9248 -9.73885 121.506 9.88908C159.734 34.424 202.96 71.8801 153.246 86.0861C147.015 88.5814 121.821 87.3784 120.494 87.9097C118.835 88.5739 192.397 104.595 167.283 133.827C138.001 167.909 87.3006 179.976 84.7813 137.567C81.8333 127.95 52.5738 153.614 35.619 169.555C32.0229 173.341 28.0351 177.222 23.6298 181.161C23.5134 181.265 28.4734 176.273 35.619 169.555C64.7304 138.907 68.1743 114.5 59.5835 116.249Z" fill="#452E80"/>
<path d="M35.619 169.555C52.5738 153.614 81.8333 127.95 84.7813 137.567C87.3006 179.976 138.001 167.909 167.283 133.827C192.397 104.595 118.835 88.5739 120.494 87.9097C121.821 87.3784 147.015 88.5814 153.246 86.0861C202.96 71.8801 159.734 34.424 121.506 9.88908C90.9248 -9.73885 86.1391 31.8176 87.5689 55.0494C34.4315 -5.42421 16.4489 60.2252 7.43809 95.4046C0.229444 123.548 39.9209 122.055 59.5835 116.249C68.1743 114.5 64.7304 138.907 35.619 169.555ZM35.619 169.555C28.4734 176.273 23.5134 181.265 23.6298 181.161C28.0351 177.222 32.0229 173.341 35.619 169.555Z" stroke="#089D53"/>
<path d="M194.805 91.6846V159.935H181.961V91.6846H194.805ZM215.992 91.6846V101.856H161.008V91.6846H215.992ZM284.685 149.81V159.935H248.404V149.81H284.685ZM252.341 91.6846V159.935H239.451V91.6846H252.341ZM279.951 119.856V129.747H248.404V119.856H279.951ZM284.544 91.6846V101.856H248.404V91.6846H284.544ZM335.659 102.044L316.206 159.935H302.565L328.065 91.6846H336.784L335.659 102.044ZM351.924 159.935L332.377 102.044L331.206 91.6846H339.971L365.612 159.935H351.924ZM351.034 134.575V144.747H314.424V134.575H351.034ZM393.148 91.6846H404.304L422.961 143.06L441.57 91.6846H452.773L427.414 159.935H418.461L393.148 91.6846ZM387.523 91.6846H398.445L400.414 138.888V159.935H387.523V91.6846ZM447.429 91.6846H458.398V159.935H445.508V138.888L447.429 91.6846Z" fill="#452E80"/>
<path d="M203.305 91.6846V159.935H190.461V91.6846H203.305ZM224.492 91.6846V101.856H169.508V91.6846H224.492ZM293.185 149.81V159.935H256.904V149.81H293.185ZM260.841 91.6846V159.935H247.951V91.6846H260.841ZM288.451 119.856V129.747H256.904V119.856H288.451ZM293.044 91.6846V101.856H256.904V91.6846H293.044ZM344.159 102.044L324.706 159.935H311.065L336.565 91.6846H345.284L344.159 102.044ZM360.424 159.935L340.877 102.044L339.706 91.6846H348.471L374.112 159.935H360.424ZM359.534 134.575V144.747H322.924V134.575H359.534ZM401.648 91.6846H412.804L431.461 143.06L450.07 91.6846H461.273L435.914 159.935H426.961L401.648 91.6846ZM396.023 91.6846H406.945L408.914 138.888V159.935H396.023V91.6846ZM455.929 91.6846H466.898V159.935H454.007V138.888L455.929 91.6846Z" fill="#089D53"/>
<path d="M115.438 109.281C115.438 107.969 115.234 106.797 114.828 105.766C114.453 104.703 113.75 103.75 112.719 102.906C111.719 102.031 110.297 101.188 108.453 100.375C106.641 99.5312 104.297 98.6562 101.422 97.75C98.2344 96.75 95.2656 95.625 92.5156 94.375C89.7656 93.125 87.3438 91.6719 85.25 90.0156C83.1875 88.3594 81.5781 86.4531 80.4219 84.2969C79.2656 82.1094 78.6875 79.5781 78.6875 76.7031C78.6875 73.8906 79.2812 71.3281 80.4688 69.0156C81.6875 66.7031 83.4062 64.7188 85.625 63.0625C87.8438 61.375 90.4531 60.0781 93.4531 59.1719C96.4844 58.2656 99.8281 57.8125 103.484 57.8125C108.547 57.8125 112.922 58.7344 116.609 60.5781C120.328 62.4219 123.203 64.9219 125.234 68.0781C127.266 71.2344 128.281 74.7812 128.281 78.7188H115.438C115.438 76.5938 114.984 74.7188 114.078 73.0938C113.203 71.4688 111.859 70.1875 110.047 69.25C108.266 68.3125 106.016 67.8438 103.297 67.8438C100.672 67.8438 98.4844 68.2344 96.7344 69.0156C95.0156 69.7969 93.7188 70.8594 92.8438 72.2031C92 73.5469 91.5781 75.0469 91.5781 76.7031C91.5781 77.9531 91.875 79.0781 92.4688 80.0781C93.0625 81.0469 93.9531 81.9688 95.1406 82.8438C96.3281 83.6875 97.7969 84.4844 99.5469 85.2344C101.328 85.9531 103.391 86.6719 105.734 87.3906C109.484 88.5156 112.766 89.7656 115.578 91.1406C118.422 92.5156 120.781 94.0781 122.656 95.8281C124.562 97.5781 125.984 99.5469 126.922 101.734C127.891 103.922 128.375 106.406 128.375 109.188C128.375 112.125 127.797 114.75 126.641 117.062C125.484 119.375 123.828 121.344 121.672 122.969C119.516 124.594 116.922 125.828 113.891 126.672C110.891 127.516 107.531 127.938 103.812 127.938C100.5 127.938 97.2188 127.5 93.9688 126.625C90.75 125.719 87.8281 124.375 85.2031 122.594C82.5781 120.781 80.4844 118.5 78.9219 115.75C77.3594 112.969 76.5781 109.719 76.5781 106H89.5156C89.5156 108.156 89.8594 110 90.5469 111.531C91.2656 113.031 92.2656 114.266 93.5469 115.234C94.8594 116.172 96.3906 116.859 98.1406 117.297C99.8906 117.734 101.781 117.953 103.812 117.953C106.438 117.953 108.594 117.594 110.281 116.875C112 116.125 113.281 115.094 114.125 113.781C115 112.469 115.438 110.969 115.438 109.281Z" fill="white"/>
<path d="M110.438 109.281C110.438 107.969 110.234 106.797 109.828 105.766C109.453 104.703 108.75 103.75 107.719 102.906C106.719 102.031 105.297 101.188 103.453 100.375C101.641 99.5312 99.2969 98.6562 96.4219 97.75C93.2344 96.75 90.2656 95.625 87.5156 94.375C84.7656 93.125 82.3438 91.6719 80.25 90.0156C78.1875 88.3594 76.5781 86.4531 75.4219 84.2969C74.2656 82.1094 73.6875 79.5781 73.6875 76.7031C73.6875 73.8906 74.2812 71.3281 75.4688 69.0156C76.6875 66.7031 78.4062 64.7188 80.625 63.0625C82.8438 61.375 85.4531 60.0781 88.4531 59.1719C91.4844 58.2656 94.8281 57.8125 98.4844 57.8125C103.547 57.8125 107.922 58.7344 111.609 60.5781C115.328 62.4219 118.203 64.9219 120.234 68.0781C122.266 71.2344 123.281 74.7812 123.281 78.7188H110.438C110.438 76.5938 109.984 74.7188 109.078 73.0938C108.203 71.4688 106.859 70.1875 105.047 69.25C103.266 68.3125 101.016 67.8438 98.2969 67.8438C95.6719 67.8438 93.4844 68.2344 91.7344 69.0156C90.0156 69.7969 88.7188 70.8594 87.8438 72.2031C87 73.5469 86.5781 75.0469 86.5781 76.7031C86.5781 77.9531 86.875 79.0781 87.4688 80.0781C88.0625 81.0469 88.9531 81.9688 90.1406 82.8438C91.3281 83.6875 92.7969 84.4844 94.5469 85.2344C96.3281 85.9531 98.3906 86.6719 100.734 87.3906C104.484 88.5156 107.766 89.7656 110.578 91.1406C113.422 92.5156 115.781 94.0781 117.656 95.8281C119.562 97.5781 120.984 99.5469 121.922 101.734C122.891 103.922 123.375 106.406 123.375 109.188C123.375 112.125 122.797 114.75 121.641 117.062C120.484 119.375 118.828 121.344 116.672 122.969C114.516 124.594 111.922 125.828 108.891 126.672C105.891 127.516 102.531 127.938 98.8125 127.938C95.5 127.938 92.2188 127.5 88.9688 126.625C85.75 125.719 82.8281 124.375 80.2031 122.594C77.5781 120.781 75.4844 118.5 73.9219 115.75C72.3594 112.969 71.5781 109.719 71.5781 106H84.5156C84.5156 108.156 84.8594 110 85.5469 111.531C86.2656 113.031 87.2656 114.266 88.5469 115.234C89.8594 116.172 91.3906 116.859 93.1406 117.297C94.8906 117.734 96.7812 117.953 98.8125 117.953C101.438 117.953 103.594 117.594 105.281 116.875C107 116.125 108.281 115.094 109.125 113.781C110 112.469 110.438 110.969 110.438 109.281Z" fill="white"/>
<path d="M75.5103 184.492H77.5245C77.4708 185.205 77.273 185.837 76.9312 186.389C76.5894 186.936 76.1134 187.365 75.503 187.678C74.8927 187.99 74.1529 188.146 73.2838 188.146C72.6148 188.146 72.0118 188.029 71.4747 187.795C70.9425 187.556 70.4859 187.216 70.1051 186.777C69.7291 186.333 69.441 185.8 69.2408 185.18C69.0406 184.555 68.9405 183.854 68.9405 183.078V182.265C68.9405 181.489 69.0431 180.788 69.2481 180.163C69.4532 179.538 69.7462 179.006 70.127 178.566C70.5128 178.122 70.9742 177.78 71.5113 177.541C72.0533 177.302 72.6588 177.182 73.3277 177.182C74.1969 177.182 74.9317 177.343 75.5323 177.666C76.1329 177.983 76.5992 178.42 76.9312 178.977C77.2633 179.533 77.4635 180.173 77.5318 180.896H75.5177C75.4786 180.446 75.381 180.065 75.2247 179.753C75.0733 179.44 74.8438 179.204 74.5362 179.042C74.2335 178.876 73.8307 178.793 73.3277 178.793C72.9371 178.793 72.5929 178.867 72.295 179.013C72.002 179.16 71.7579 179.379 71.5626 179.672C71.3673 179.96 71.2208 180.322 71.1231 180.756C71.0255 181.186 70.9767 181.684 70.9767 182.25V183.078C70.9767 183.62 71.0206 184.106 71.1085 184.536C71.1964 184.965 71.3331 185.329 71.5186 185.627C71.7042 185.925 71.9435 186.152 72.2364 186.308C72.5294 186.464 72.8785 186.542 73.2838 186.542C73.7769 186.542 74.1773 186.464 74.485 186.308C74.7975 186.152 75.0343 185.922 75.1954 185.62C75.3614 185.317 75.4664 184.941 75.5103 184.492ZM92.0188 184.118V183.964C92.0188 183.383 92.1018 182.849 92.2679 182.36C92.4339 181.867 92.6756 181.44 92.993 181.079C93.3103 180.717 93.6985 180.437 94.1575 180.236C94.6165 180.031 95.139 179.929 95.7249 179.929C96.3206 179.929 96.8479 180.031 97.3069 180.236C97.7708 180.437 98.1614 180.717 98.4788 181.079C98.7962 181.44 99.0379 181.867 99.2039 182.36C99.3699 182.849 99.4529 183.383 99.4529 183.964V184.118C99.4529 184.694 99.3699 185.229 99.2039 185.722C99.0379 186.21 98.7962 186.638 98.4788 187.004C98.1614 187.365 97.7732 187.646 97.3143 187.846C96.8553 188.046 96.3304 188.146 95.7395 188.146C95.1536 188.146 94.6287 188.046 94.1648 187.846C93.701 187.646 93.3103 187.365 92.993 187.004C92.6756 186.638 92.4339 186.21 92.2679 185.722C92.1018 185.229 92.0188 184.694 92.0188 184.118ZM93.9524 183.964V184.118C93.9524 184.465 93.9866 184.79 94.055 185.092C94.1233 185.395 94.2283 185.661 94.3699 185.891C94.5115 186.12 94.6946 186.301 94.9192 186.433C95.1487 186.56 95.4222 186.623 95.7395 186.623C96.052 186.623 96.3206 186.56 96.5452 186.433C96.7698 186.301 96.9529 186.12 97.0945 185.891C97.241 185.661 97.3484 185.395 97.4168 185.092C97.4851 184.79 97.5193 184.465 97.5193 184.118V183.964C97.5193 183.623 97.4851 183.303 97.4168 183.005C97.3484 182.702 97.241 182.436 97.0945 182.207C96.9529 181.972 96.7674 181.789 96.5379 181.657C96.3133 181.521 96.0423 181.452 95.7249 181.452C95.4124 181.452 95.1438 181.521 94.9192 181.657C94.6946 181.789 94.5115 181.972 94.3699 182.207C94.2283 182.436 94.1233 182.702 94.055 183.005C93.9866 183.303 93.9524 183.623 93.9524 183.964ZM116.335 176.75V188H114.394V176.75H116.335ZM135.165 188.146C134.565 188.146 134.025 188.049 133.547 187.854C133.068 187.658 132.66 187.387 132.323 187.041C131.991 186.689 131.735 186.281 131.554 185.817C131.379 185.349 131.291 184.846 131.291 184.309V184.016C131.291 183.405 131.379 182.851 131.554 182.353C131.73 181.85 131.979 181.418 132.301 181.057C132.624 180.695 133.009 180.417 133.459 180.222C133.908 180.026 134.404 179.929 134.946 179.929C135.507 179.929 136.003 180.024 136.432 180.214C136.862 180.4 137.221 180.664 137.509 181.005C137.797 181.347 138.014 181.757 138.161 182.236C138.307 182.709 138.381 183.234 138.381 183.811V184.624H132.17V183.291H136.476V183.144C136.466 182.836 136.408 182.556 136.3 182.302C136.193 182.043 136.027 181.838 135.802 181.687C135.578 181.53 135.287 181.452 134.931 181.452C134.643 181.452 134.391 181.516 134.176 181.643C133.966 181.765 133.791 181.94 133.649 182.17C133.512 182.395 133.41 182.663 133.341 182.976C133.273 183.288 133.239 183.635 133.239 184.016V184.309C133.239 184.641 133.283 184.948 133.371 185.231C133.464 185.515 133.598 185.761 133.774 185.971C133.954 186.176 134.169 186.337 134.418 186.455C134.672 186.567 134.96 186.623 135.282 186.623C135.688 186.623 136.054 186.545 136.381 186.389C136.713 186.228 137.001 185.991 137.245 185.678L138.219 186.689C138.053 186.933 137.829 187.167 137.546 187.392C137.267 187.617 136.93 187.8 136.535 187.941C136.139 188.078 135.683 188.146 135.165 188.146ZM158.141 180.075H159.899V187.758C159.899 188.476 159.743 189.084 159.43 189.582C159.122 190.085 158.69 190.466 158.134 190.725C157.577 190.988 156.93 191.12 156.193 191.12C155.875 191.12 155.531 191.076 155.16 190.988C154.794 190.9 154.44 190.761 154.098 190.571C153.761 190.385 153.48 190.144 153.256 189.846L154.127 188.703C154.391 189.011 154.689 189.243 155.021 189.399C155.353 189.56 155.712 189.641 156.098 189.641C156.488 189.641 156.82 189.567 157.094 189.421C157.372 189.279 157.584 189.069 157.731 188.791C157.882 188.518 157.958 188.181 157.958 187.78V181.884L158.141 180.075ZM152.787 184.133V183.979C152.787 183.374 152.86 182.824 153.007 182.331C153.153 181.833 153.363 181.406 153.637 181.049C153.915 180.693 154.249 180.417 154.64 180.222C155.036 180.026 155.48 179.929 155.973 179.929C156.495 179.929 156.935 180.024 157.291 180.214C157.653 180.405 157.951 180.676 158.185 181.027C158.424 181.379 158.61 181.796 158.742 182.28C158.878 182.758 158.983 183.286 159.057 183.862V184.279C158.988 184.841 158.878 185.356 158.727 185.825C158.58 186.293 158.385 186.704 158.141 187.055C157.897 187.402 157.594 187.67 157.233 187.861C156.871 188.051 156.447 188.146 155.958 188.146C155.47 188.146 155.031 188.046 154.64 187.846C154.249 187.646 153.915 187.365 153.637 187.004C153.363 186.643 153.153 186.218 153.007 185.729C152.86 185.241 152.787 184.709 152.787 184.133ZM154.721 183.979V184.133C154.721 184.475 154.755 184.794 154.823 185.092C154.891 185.39 154.996 185.654 155.138 185.883C155.28 186.108 155.458 186.284 155.673 186.411C155.888 186.538 156.144 186.601 156.442 186.601C156.842 186.601 157.169 186.518 157.423 186.352C157.682 186.181 157.877 185.949 158.009 185.656C158.146 185.358 158.234 185.024 158.273 184.653V183.503C158.248 183.21 158.195 182.939 158.112 182.69C158.034 182.441 157.924 182.226 157.782 182.045C157.641 181.865 157.46 181.723 157.24 181.621C157.02 181.518 156.759 181.467 156.456 181.467C156.163 181.467 155.907 181.533 155.687 181.665C155.468 181.792 155.287 181.97 155.145 182.199C155.004 182.429 154.896 182.695 154.823 182.998C154.755 183.3 154.721 183.627 154.721 183.979ZM177.118 180.075V188H175.177V180.075H177.118ZM175.045 178.002C175.045 177.714 175.143 177.475 175.338 177.285C175.538 177.094 175.807 176.999 176.144 176.999C176.481 176.999 176.747 177.094 176.942 177.285C177.142 177.475 177.242 177.714 177.242 178.002C177.242 178.286 177.142 178.522 176.942 178.713C176.747 178.903 176.481 178.999 176.144 178.999C175.807 178.999 175.538 178.903 175.338 178.713C175.143 178.522 175.045 178.286 175.045 178.002ZM192.044 184.118V183.964C192.044 183.383 192.127 182.849 192.293 182.36C192.459 181.867 192.701 181.44 193.018 181.079C193.336 180.717 193.724 180.437 194.183 180.236C194.642 180.031 195.164 179.929 195.75 179.929C196.346 179.929 196.873 180.031 197.332 180.236C197.796 180.437 198.187 180.717 198.504 181.079C198.822 181.44 199.063 181.867 199.229 182.36C199.395 182.849 199.478 183.383 199.478 183.964V184.118C199.478 184.694 199.395 185.229 199.229 185.722C199.063 186.21 198.822 186.638 198.504 187.004C198.187 187.365 197.799 187.646 197.34 187.846C196.881 188.046 196.356 188.146 195.765 188.146C195.179 188.146 194.654 188.046 194.19 187.846C193.726 187.646 193.336 187.365 193.018 187.004C192.701 186.638 192.459 186.21 192.293 185.722C192.127 185.229 192.044 184.694 192.044 184.118ZM193.978 183.964V184.118C193.978 184.465 194.012 184.79 194.08 185.092C194.149 185.395 194.254 185.661 194.395 185.891C194.537 186.12 194.72 186.301 194.945 186.433C195.174 186.56 195.448 186.623 195.765 186.623C196.077 186.623 196.346 186.56 196.571 186.433C196.795 186.301 196.978 186.12 197.12 185.891C197.266 185.661 197.374 185.395 197.442 185.092C197.511 184.79 197.545 184.465 197.545 184.118V183.964C197.545 183.623 197.511 183.303 197.442 183.005C197.374 182.702 197.266 182.436 197.12 182.207C196.978 181.972 196.793 181.789 196.563 181.657C196.339 181.521 196.068 181.452 195.75 181.452C195.438 181.452 195.169 181.521 194.945 181.657C194.72 181.789 194.537 181.972 194.395 182.207C194.254 182.436 194.149 182.702 194.08 183.005C194.012 183.303 193.978 183.623 193.978 183.964ZM237.197 185.231C237.197 185.026 237.166 184.843 237.102 184.682C237.044 184.516 236.934 184.367 236.773 184.235C236.616 184.099 236.394 183.967 236.106 183.84C235.823 183.708 235.457 183.571 235.008 183.43C234.509 183.273 234.046 183.098 233.616 182.902C233.186 182.707 232.808 182.48 232.481 182.221C232.158 181.962 231.907 181.665 231.726 181.328C231.546 180.986 231.455 180.59 231.455 180.141C231.455 179.702 231.548 179.301 231.734 178.94C231.924 178.579 232.193 178.269 232.539 178.01C232.886 177.746 233.294 177.543 233.762 177.402C234.236 177.26 234.758 177.189 235.33 177.189C236.121 177.189 236.804 177.333 237.381 177.622C237.962 177.91 238.411 178.3 238.728 178.793C239.046 179.287 239.204 179.841 239.204 180.456H237.197C237.197 180.124 237.127 179.831 236.985 179.577C236.848 179.323 236.638 179.123 236.355 178.977C236.077 178.83 235.725 178.757 235.3 178.757C234.89 178.757 234.549 178.818 234.275 178.94C234.007 179.062 233.804 179.228 233.667 179.438C233.535 179.648 233.469 179.882 233.469 180.141C233.469 180.336 233.516 180.512 233.609 180.668C233.701 180.82 233.841 180.964 234.026 181.101C234.212 181.232 234.441 181.357 234.715 181.474C234.993 181.586 235.315 181.699 235.681 181.811C236.267 181.987 236.78 182.182 237.219 182.397C237.664 182.612 238.032 182.856 238.325 183.129C238.623 183.403 238.845 183.71 238.992 184.052C239.143 184.394 239.219 184.782 239.219 185.217C239.219 185.676 239.129 186.086 238.948 186.447C238.767 186.809 238.508 187.116 238.172 187.37C237.835 187.624 237.429 187.817 236.956 187.949C236.487 188.081 235.962 188.146 235.381 188.146C234.863 188.146 234.351 188.078 233.843 187.941C233.34 187.8 232.883 187.59 232.473 187.312C232.063 187.028 231.736 186.672 231.492 186.242C231.248 185.808 231.126 185.3 231.126 184.719H233.147C233.147 185.056 233.201 185.344 233.308 185.583C233.421 185.817 233.577 186.01 233.777 186.162C233.982 186.308 234.221 186.416 234.495 186.484C234.768 186.552 235.064 186.586 235.381 186.586C235.791 186.586 236.128 186.53 236.392 186.418C236.66 186.301 236.861 186.14 236.992 185.935C237.129 185.729 237.197 185.495 237.197 185.231ZM258.415 186.315V182.661C258.415 182.392 258.369 182.16 258.276 181.965C258.183 181.77 258.042 181.618 257.851 181.511C257.661 181.403 257.419 181.35 257.126 181.35C256.868 181.35 256.641 181.394 256.445 181.481C256.255 181.569 256.108 181.694 256.006 181.855C255.903 182.011 255.852 182.192 255.852 182.397H253.911C253.911 182.07 253.989 181.76 254.145 181.467C254.302 181.169 254.524 180.905 254.812 180.676C255.105 180.441 255.454 180.258 255.859 180.126C256.269 179.995 256.728 179.929 257.236 179.929C257.837 179.929 258.371 180.031 258.84 180.236C259.314 180.437 259.685 180.739 259.954 181.145C260.227 181.55 260.364 182.06 260.364 182.675V186.132C260.364 186.528 260.388 186.867 260.437 187.15C260.491 187.429 260.569 187.67 260.671 187.875V188H258.701C258.608 187.8 258.537 187.546 258.489 187.238C258.44 186.926 258.415 186.618 258.415 186.315ZM258.686 183.173L258.701 184.323H257.478C257.175 184.323 256.909 184.355 256.68 184.418C256.45 184.477 256.262 184.565 256.116 184.682C255.969 184.794 255.859 184.931 255.786 185.092C255.713 185.249 255.676 185.427 255.676 185.627C255.676 185.822 255.72 185.998 255.808 186.154C255.901 186.311 256.033 186.435 256.204 186.528C256.379 186.616 256.584 186.66 256.819 186.66C257.161 186.66 257.458 186.591 257.712 186.455C257.966 186.313 258.164 186.142 258.306 185.942C258.447 185.742 258.523 185.551 258.533 185.371L259.089 186.206C259.021 186.406 258.918 186.618 258.782 186.843C258.645 187.067 258.469 187.277 258.254 187.473C258.039 187.668 257.781 187.829 257.478 187.956C257.175 188.083 256.824 188.146 256.423 188.146C255.911 188.146 255.452 188.044 255.046 187.839C254.641 187.634 254.321 187.353 254.087 186.997C253.852 186.64 253.735 186.235 253.735 185.781C253.735 185.361 253.813 184.99 253.97 184.667C254.126 184.345 254.358 184.074 254.665 183.854C254.973 183.63 255.354 183.461 255.808 183.349C256.267 183.232 256.792 183.173 257.383 183.173H258.686ZM277.429 181.767V188H275.495V180.075H277.312L277.429 181.767ZM277.121 183.752H276.55C276.555 183.176 276.633 182.653 276.784 182.185C276.936 181.716 277.148 181.313 277.421 180.976C277.7 180.639 278.029 180.38 278.41 180.2C278.791 180.019 279.216 179.929 279.685 179.929C280.066 179.929 280.41 179.982 280.717 180.09C281.025 180.197 281.289 180.368 281.508 180.603C281.733 180.837 281.904 181.145 282.021 181.525C282.143 181.901 282.204 182.365 282.204 182.917V188H280.256V182.902C280.256 182.541 280.202 182.255 280.095 182.045C279.992 181.835 279.841 181.687 279.641 181.599C279.445 181.511 279.204 181.467 278.916 181.467C278.618 181.467 278.357 181.528 278.132 181.65C277.912 181.767 277.727 181.931 277.575 182.141C277.429 182.351 277.316 182.592 277.238 182.866C277.16 183.139 277.121 183.435 277.121 183.752ZM318.744 184.111H315.998V182.529H318.744C319.193 182.529 319.557 182.456 319.835 182.309C320.119 182.158 320.326 181.953 320.458 181.694C320.59 181.43 320.656 181.13 320.656 180.793C320.656 180.466 320.59 180.161 320.458 179.877C320.326 179.594 320.119 179.365 319.835 179.189C319.557 179.013 319.193 178.925 318.744 178.925H316.657V188H314.643V177.336H318.744C319.574 177.336 320.282 177.485 320.868 177.783C321.459 178.076 321.908 178.483 322.216 179.006C322.528 179.523 322.685 180.114 322.685 180.778C322.685 181.467 322.528 182.06 322.216 182.558C321.908 183.056 321.459 183.439 320.868 183.708C320.282 183.977 319.574 184.111 318.744 184.111ZM341.822 186.315V182.661C341.822 182.392 341.776 182.16 341.683 181.965C341.591 181.77 341.449 181.618 341.258 181.511C341.068 181.403 340.826 181.35 340.533 181.35C340.275 181.35 340.048 181.394 339.852 181.481C339.662 181.569 339.515 181.694 339.413 181.855C339.31 182.011 339.259 182.192 339.259 182.397H337.318C337.318 182.07 337.396 181.76 337.552 181.467C337.709 181.169 337.931 180.905 338.219 180.676C338.512 180.441 338.861 180.258 339.266 180.126C339.676 179.995 340.135 179.929 340.643 179.929C341.244 179.929 341.779 180.031 342.247 180.236C342.721 180.437 343.092 180.739 343.361 181.145C343.634 181.55 343.771 182.06 343.771 182.675V186.132C343.771 186.528 343.795 186.867 343.844 187.15C343.898 187.429 343.976 187.67 344.078 187.875V188H342.108C342.015 187.8 341.945 187.546 341.896 187.238C341.847 186.926 341.822 186.618 341.822 186.315ZM342.093 183.173L342.108 184.323H340.885C340.582 184.323 340.316 184.355 340.087 184.418C339.857 184.477 339.669 184.565 339.523 184.682C339.376 184.794 339.266 184.931 339.193 185.092C339.12 185.249 339.083 185.427 339.083 185.627C339.083 185.822 339.127 185.998 339.215 186.154C339.308 186.311 339.44 186.435 339.611 186.528C339.786 186.616 339.991 186.66 340.226 186.66C340.568 186.66 340.865 186.591 341.119 186.455C341.373 186.313 341.571 186.142 341.713 185.942C341.854 185.742 341.93 185.551 341.94 185.371L342.496 186.206C342.428 186.406 342.325 186.618 342.189 186.843C342.052 187.067 341.876 187.277 341.661 187.473C341.446 187.668 341.188 187.829 340.885 187.956C340.582 188.083 340.231 188.146 339.83 188.146C339.318 188.146 338.859 188.044 338.453 187.839C338.048 187.634 337.728 187.353 337.494 186.997C337.259 186.64 337.142 186.235 337.142 185.781C337.142 185.361 337.22 184.99 337.377 184.667C337.533 184.345 337.765 184.074 338.072 183.854C338.38 183.63 338.761 183.461 339.215 183.349C339.674 183.232 340.199 183.173 340.79 183.173H342.093ZM362.689 180.075V181.467H358.148V180.075H362.689ZM359.364 178.127H361.305V185.715C361.305 185.949 361.336 186.13 361.4 186.257C361.463 186.384 361.559 186.469 361.685 186.513C361.812 186.557 361.964 186.579 362.14 186.579C362.267 186.579 362.384 186.572 362.491 186.557C362.599 186.542 362.689 186.528 362.762 186.513L362.769 187.963C362.608 188.017 362.425 188.061 362.22 188.095C362.02 188.129 361.793 188.146 361.539 188.146C361.104 188.146 360.724 188.073 360.396 187.927C360.069 187.775 359.815 187.534 359.635 187.202C359.454 186.865 359.364 186.42 359.364 185.869V178.127ZM379.337 181.694V188H377.403V180.075H379.234L379.337 181.694ZM381.746 180.024L381.717 181.826C381.609 181.806 381.487 181.792 381.351 181.782C381.219 181.772 381.094 181.767 380.977 181.767C380.679 181.767 380.418 181.809 380.193 181.892C379.969 181.97 379.781 182.084 379.629 182.236C379.483 182.387 379.371 182.573 379.293 182.792C379.214 183.007 379.171 183.251 379.161 183.525L378.743 183.474C378.743 182.971 378.795 182.504 378.897 182.075C379 181.645 379.149 181.269 379.344 180.947C379.539 180.625 379.783 180.375 380.076 180.2C380.374 180.019 380.716 179.929 381.102 179.929C381.209 179.929 381.324 179.938 381.446 179.958C381.573 179.973 381.673 179.995 381.746 180.024ZM398.284 180.075V188H396.343V180.075H398.284ZM396.211 178.002C396.211 177.714 396.309 177.475 396.504 177.285C396.704 177.094 396.973 176.999 397.31 176.999C397.647 176.999 397.913 177.094 398.108 177.285C398.308 177.475 398.408 177.714 398.408 178.002C398.408 178.286 398.308 178.522 398.108 178.713C397.913 178.903 397.647 178.999 397.31 178.999C396.973 178.999 396.704 178.903 396.504 178.713C396.309 178.522 396.211 178.286 396.211 178.002ZM416.807 186.623C417.08 186.623 417.324 186.569 417.539 186.462C417.754 186.354 417.925 186.203 418.052 186.008C418.184 185.812 418.254 185.585 418.264 185.327H420.088C420.078 185.864 419.927 186.345 419.634 186.77C419.341 187.194 418.95 187.531 418.462 187.78C417.979 188.024 417.437 188.146 416.836 188.146C416.226 188.146 415.693 188.044 415.239 187.839C414.785 187.634 414.407 187.348 414.104 186.982C413.806 186.616 413.582 186.191 413.43 185.708C413.284 185.224 413.21 184.707 413.21 184.155V183.92C413.21 183.369 413.284 182.851 413.43 182.368C413.582 181.884 413.806 181.459 414.104 181.093C414.407 180.727 414.785 180.441 415.239 180.236C415.693 180.031 416.223 179.929 416.829 179.929C417.468 179.929 418.03 180.053 418.513 180.302C419.001 180.551 419.382 180.903 419.656 181.357C419.934 181.811 420.078 182.346 420.088 182.961H418.264C418.254 182.678 418.191 182.424 418.074 182.199C417.957 181.975 417.791 181.794 417.576 181.657C417.361 181.521 417.1 181.452 416.792 181.452C416.465 181.452 416.191 181.521 415.972 181.657C415.757 181.794 415.588 181.982 415.466 182.221C415.349 182.456 415.266 182.719 415.217 183.012C415.173 183.3 415.151 183.603 415.151 183.92V184.155C415.151 184.477 415.173 184.785 415.217 185.078C415.266 185.371 415.349 185.634 415.466 185.869C415.588 186.098 415.757 186.281 415.972 186.418C416.191 186.555 416.47 186.623 416.807 186.623ZM436.853 180.075V188H434.912V180.075H436.853ZM434.78 178.002C434.78 177.714 434.878 177.475 435.073 177.285C435.273 177.094 435.542 176.999 435.879 176.999C436.216 176.999 436.482 177.094 436.677 177.285C436.877 177.475 436.977 177.714 436.977 178.002C436.977 178.286 436.877 178.522 436.677 178.713C436.482 178.903 436.216 178.999 435.879 178.999C435.542 178.999 435.273 178.903 435.073 178.713C434.878 178.522 434.78 178.286 434.78 178.002ZM451.779 184.118V183.964C451.779 183.383 451.862 182.849 452.028 182.36C452.194 181.867 452.436 181.44 452.753 181.079C453.071 180.717 453.459 180.437 453.918 180.236C454.377 180.031 454.899 179.929 455.485 179.929C456.081 179.929 456.608 180.031 457.067 180.236C457.531 180.437 457.922 180.717 458.239 181.079C458.557 181.44 458.798 181.867 458.964 182.36C459.13 182.849 459.213 183.383 459.213 183.964V184.118C459.213 184.694 459.13 185.229 458.964 185.722C458.798 186.21 458.557 186.638 458.239 187.004C457.922 187.365 457.534 187.646 457.075 187.846C456.616 188.046 456.091 188.146 455.5 188.146C454.914 188.146 454.389 188.046 453.925 187.846C453.461 187.646 453.071 187.365 452.753 187.004C452.436 186.638 452.194 186.21 452.028 185.722C451.862 185.229 451.779 184.694 451.779 184.118ZM453.713 183.964V184.118C453.713 184.465 453.747 184.79 453.815 185.092C453.884 185.395 453.989 185.661 454.13 185.891C454.272 186.12 454.455 186.301 454.68 186.433C454.909 186.56 455.183 186.623 455.5 186.623C455.812 186.623 456.081 186.56 456.306 186.433C456.53 186.301 456.713 186.12 456.855 185.891C457.001 185.661 457.109 185.395 457.177 185.092C457.246 184.79 457.28 184.465 457.28 184.118V183.964C457.28 183.623 457.246 183.303 457.177 183.005C457.109 182.702 457.001 182.436 456.855 182.207C456.713 181.972 456.528 181.789 456.298 181.657C456.074 181.521 455.803 181.452 455.485 181.452C455.173 181.452 454.904 181.521 454.68 181.657C454.455 181.789 454.272 181.972 454.13 182.207C453.989 182.436 453.884 182.702 453.815 183.005C453.747 183.303 453.713 183.623 453.713 183.964Z" fill="#1B8825"/>
</svg>
